<svg width="369" height="218" viewBox="0 0 369 218" fill="none" xmlns="http://www.w3.org/2000/svg">
<path d="M104 39.5L1 216.5L83 217L184.5 41.5L286.5 217H368L265 39.5L242 77L253.5 95.5L265 78.5L332.5 197H298.5L184.5 1L70.5 197.5H35.5L104 78.5L115 95.5L126 77L104 39.5Z" fill="white"/>
<path d="M184 175.5L151.5 121.5L139.5 140L184 217L229 140L217 121.5L184 175.5Z" fill="white"/>
<path d="M104 39.5L1 216.5L83 217L184.5 41.5L286.5 217H368L265 39.5L242 77L253.5 95.5L265 78.5L332.5 197H298.5L184.5 1L70.5 197.5H35.5L104 78.5L115 95.5L126 77L104 39.5Z" stroke="white"/>
<path d="M184 175.5L151.5 121.5L139.5 140L184 217L229 140L217 121.5L184 175.5Z" stroke="white"/>
</svg>